<?xml version="1.0" encoding="utf-8"?>
<!-- Generator: Adobe Illustrator 26.3.1, SVG Export Plug-In . SVG Version: 6.00 Build 0)  -->
<svg version="1.1" id="Capa_1" xmlns="http://www.w3.org/2000/svg" xmlns:xlink="http://www.w3.org/1999/xlink" x="0px" y="0px"
	 viewBox="0 0 512 512" style="enable-background:new 0 0 512 512;" xml:space="preserve">
<style type="text/css">
	.st0{opacity:0.3;fill:#1A1A1A;enable-background:new    ;}
	.st1{fill:url(#SVGID_1_);}
	.st2{fill:url(#SVGID_00000080195592428740607480000011949832174285176752_);}
	.st3{fill:url(#SVGID_00000026843843371324444740000009341844891360476831_);}
	.st4{fill:url(#SVGID_00000105403183699188294050000006284733137746153904_);}
	.st5{fill:url(#SVGID_00000032641224333762829030000003576124034208744362_);}
	.st6{fill:url(#SVGID_00000081609345789020845940000007512101847023273346_);}
	.st7{fill:url(#SVGID_00000018933801819792695170000000362616475609579423_);}
	.st8{fill:url(#SVGID_00000114032426724615448840000009607309641396232600_);}
	.st9{fill:url(#SVGID_00000086692702431519862440000003494734106767625375_);}
	.st10{fill:url(#SVGID_00000135669412987652171000000003689963405834488194_);}
	.st11{fill:url(#SVGID_00000183935544166121035850000004225091988390816951_);}
	.st12{fill:url(#SVGID_00000175311084145493276130000000826456262300438953_);}
	.st13{fill:#FFFFFF;}
	.st14{fill:url(#SVGID_00000057858662339455964840000014409979168809026180_);}
	.st15{fill:url(#SVGID_00000132789985447118539610000015620765345152670634_);}
	.st16{fill:url(#SVGID_00000011715720880892469760000005374935483034002827_);}
	.st17{fill:url(#SVGID_00000017507299918207759080000012427256657264754851_);}
	.st18{fill:url(#SVGID_00000179622764460595349050000018139057820856072380_);}
	.st19{fill:#4D4D4D;}
	.st20{fill:url(#SVGID_00000044171447469126244080000011796035301612927127_);}
	.st21{fill:url(#SVGID_00000039115433704947402590000000541511111530437029_);}
	.st22{fill:url(#SVGID_00000183247473732809296340000004656945423681546415_);}
	.st23{fill:url(#SVGID_00000110447991579280131870000010647465890491452564_);}
	.st24{fill:url(#SVGID_00000070820565567116332620000009742637004444425612_);}
	.st25{fill:url(#SVGID_00000135671148004459975040000002687113975512685976_);}
</style>
<path class="st0" d="M447,14.6H260.5H74c-34.8,0-63,28.2-63,63V242v171v0V444c0,34.8,28.2,63,63,63h186.5l0,0H447
	c34.8,0,63-28.2,63-63v-31.1V242V77.6C510,42.8,481.8,14.6,447,14.6z"/>
<linearGradient id="SVGID_1_" gradientUnits="userSpaceOnUse" x1="252.6707" y1="61.9618" x2="252.6707" y2="549.7039" gradientTransform="matrix(1 0 0 1 0 2)">
	<stop  offset="5.000000e-03" style="stop-color:#BDB42B"/>
	<stop  offset="1" style="stop-color:#BC8A3E"/>
</linearGradient>
<path class="st1" d="M435.6,498.8H69.7C33,498.8,3.2,469,3.2,432.3V72.9C3.2,36.2,33,6.4,69.7,6.4h365.9c36.7,0,66.5,29.8,66.5,66.5
	v359.3C502.1,469,472.3,498.8,435.6,498.8z"/>
<linearGradient id="SVGID_00000069394914862308440530000001438977621557426617_" gradientUnits="userSpaceOnUse" x1="377.4017" y1="61.9618" x2="377.4017" y2="549.7039" gradientTransform="matrix(1 0 0 1 0 2)">
	<stop  offset="0" style="stop-color:#AFAFAF"/>
	<stop  offset="0.995" style="stop-color:#A3A3A3"/>
</linearGradient>
<path style="fill:url(#SVGID_00000069394914862308440530000001438977621557426617_);" d="M439.2,6.4H252.7v492.4h186.5
	c34.8,0,63-28.2,63-63V69.4C502.1,34.6,473.9,6.4,439.2,6.4z"/>
<linearGradient id="SVGID_00000151522869074462137890000010712082010561527689_" gradientUnits="userSpaceOnUse" x1="252.6707" y1="-440.0488" x2="252.6707" y2="466.1449" gradientTransform="matrix(1 0 0 1 0 2)">
	<stop  offset="0" style="stop-color:#FFFF88"/>
	<stop  offset="1" style="stop-color:#FFD270"/>
</linearGradient>
<path style="fill:url(#SVGID_00000151522869074462137890000010712082010561527689_);" d="M439.2,6.4H252.7H66.2
	c-34.8,0-63,28.2-63,63v171v171c0,34.8,28.2,63,63,63h186.5V240.3h249.5v-171C502.1,34.6,473.9,6.4,439.2,6.4z"/>
<linearGradient id="SVGID_00000005987652564019744870000005819424851715960505_" gradientUnits="userSpaceOnUse" x1="375.7597" y1="227.6184" x2="375.7597" y2="-30.2667" gradientTransform="matrix(1 0 0 1 0 2)">
	<stop  offset="5.000000e-03" style="stop-color:#FFA746"/>
	<stop  offset="1" style="stop-color:#FFC746"/>
</linearGradient>
<path style="fill:url(#SVGID_00000005987652564019744870000005819424851715960505_);" d="M252.7,240.3V9.7h186.5
	c32.9,0,59.7,26.8,59.7,59.7v171H252.7z"/>
<linearGradient id="SVGID_00000119806061998129445150000002345572519184602300_" gradientUnits="userSpaceOnUse" x1="377.4017" y1="221.0835" x2="377.4017" y2="473.9606" gradientTransform="matrix(1 0 0 1 0 2)">
	<stop  offset="0" style="stop-color:#F2F2F2"/>
	<stop  offset="0.995" style="stop-color:#FFFFFF"/>
</linearGradient>
<path style="fill:url(#SVGID_00000119806061998129445150000002345572519184602300_);" d="M252.7,240.3v233.9h186.5
	c34.8,0,63-28.2,63-63v-171H252.7z"/>
<linearGradient id="SVGID_00000107553835101488058050000001070536454421528479_" gradientUnits="userSpaceOnUse" x1="375.7597" y1="221.3297" x2="375.7597" y2="470.6603" gradientTransform="matrix(1 0 0 1 0 2)">
	<stop  offset="0" style="stop-color:#F2F2F2"/>
	<stop  offset="0.995" style="stop-color:#E6E6E6"/>
</linearGradient>
<path style="fill:url(#SVGID_00000107553835101488058050000001070536454421528479_);" d="M252.7,471V240.3h246.2v171
	c0,32.9-26.8,59.7-59.7,59.7H252.7z"/>
<linearGradient id="SVGID_00000062159672063577940790000014941328344225530768_" gradientUnits="userSpaceOnUse" x1="129.5809" y1="242.9379" x2="129.5809" y2="12.9167" gradientTransform="matrix(1 0 0 1 0 2)">
	<stop  offset="5.000000e-03" style="stop-color:#FFA746"/>
	<stop  offset="1" style="stop-color:#FFC746"/>
</linearGradient>
<path style="fill:url(#SVGID_00000062159672063577940790000014941328344225530768_);" d="M6.5,240.3v-171
	c0-32.9,26.8-59.7,59.7-59.7h186.5v230.6H6.5z"/>
<linearGradient id="SVGID_00000060030024502958682760000001712284430034493828_" gradientUnits="userSpaceOnUse" x1="129.5809" y1="19.2218" x2="129.5809" y2="465.9643" gradientTransform="matrix(1 0 0 1 0 2)">
	<stop  offset="5.000000e-03" style="stop-color:#FFA746"/>
	<stop  offset="1" style="stop-color:#FFC746"/>
</linearGradient>
<path style="fill:url(#SVGID_00000060030024502958682760000001712284430034493828_);" d="M66.2,471c-32.9,0-59.7-26.8-59.7-59.7
	v-171h246.2V471L66.2,471L66.2,471z"/>
<linearGradient id="SVGID_00000095327635597794317410000013009662646923032232_" gradientUnits="userSpaceOnUse" x1="71.615" y1="120.1403" x2="192.8371" y2="120.1403" gradientTransform="matrix(1 0 0 1 0 2)">
	<stop  offset="5.000000e-03" style="stop-color:#A1692C"/>
	<stop  offset="1" style="stop-color:#A17D2C"/>
</linearGradient>
<polygon style="fill:url(#SVGID_00000095327635597794317410000013009662646923032232_);" points="147.2,66.2 147.2,56.9 117.2,56.9 
	117.2,66.2 117.2,102.5 71.6,102.5 71.6,111.8 71.6,132.5 71.6,141.8 117.2,141.8 117.2,178.1 117.2,187.4 147.2,187.4 147.2,178.1 
	147.2,141.8 192.8,141.8 192.8,132.5 192.8,111.8 192.8,102.5 147.2,102.5 "/>
<linearGradient id="SVGID_00000129185689420515570710000009509578391748014224_" gradientUnits="userSpaceOnUse" x1="78.7444" y1="339.7047" x2="185.7077" y2="339.7047" gradientTransform="matrix(1 0 0 1 0 2)">
	<stop  offset="5.000000e-03" style="stop-color:#A1692C"/>
	<stop  offset="1" style="stop-color:#A17D2C"/>
</linearGradient>
<polygon style="fill:url(#SVGID_00000129185689420515570710000009509578391748014224_);" points="164.5,283.6 132.2,315.8 
	100,283.6 78.7,304.8 78.7,304.8 78.7,304.8 78.7,314.1 106.3,341.7 78.7,369.3 78.7,378.6 100,399.8 132.2,367.6 164.5,399.8 
	185.7,378.6 185.7,369.3 158.1,341.7 185.7,314.1 185.7,304.8 "/>
<linearGradient id="SVGID_00000041974616724626117890000013077739565821807531_" gradientUnits="userSpaceOnUse" x1="320.6763" y1="120.1395" x2="441.8984" y2="120.1395" gradientTransform="matrix(1 0 0 1 0 2)">
	<stop  offset="5.000000e-03" style="stop-color:#A1692C"/>
	<stop  offset="1" style="stop-color:#A17D2C"/>
</linearGradient>
<polygon style="fill:url(#SVGID_00000041974616724626117890000013077739565821807531_);" points="320.7,102.5 320.7,111.8 
	320.7,132.5 320.7,132.5 320.7,141.8 441.9,141.8 441.9,132.5 441.9,132.5 441.9,111.8 441.9,102.5 "/>
<linearGradient id="SVGID_00000034059645192576737720000014033502005667636877_" gradientUnits="userSpaceOnUse" x1="128.3404" y1="74.4735" x2="128.3404" y2="194.5659" gradientTransform="matrix(1 0 0 1 0 2)">
	<stop  offset="0" style="stop-color:#AFAFAF"/>
	<stop  offset="0.995" style="stop-color:#A3A3A3"/>
</linearGradient>
<polygon style="fill:url(#SVGID_00000034059645192576737720000014033502005667636877_);" points="189,107.9 143.4,107.9 143.4,62.3 
	113.3,62.3 113.3,107.9 67.7,107.9 67.7,137.9 113.3,137.9 113.3,183.5 143.4,183.5 143.4,137.9 189,137.9 "/>
<polygon class="st13" points="189,98.6 143.4,98.6 143.4,53 113.3,53 113.3,98.6 67.7,98.6 67.7,128.6 113.3,128.6 113.3,174.2 
	143.4,174.2 143.4,128.6 189,128.6 "/>
<linearGradient id="SVGID_00000174602752690167794000000015288796918099704212_" gradientUnits="userSpaceOnUse" x1="128.3396" y1="66.4115" x2="128.3396" y2="183.2364" gradientTransform="matrix(1 0 0 1 0 2)">
	<stop  offset="0" style="stop-color:#FFFFFF"/>
	<stop  offset="0.995" style="stop-color:#F5F5F5"/>
</linearGradient>
<polygon style="fill:url(#SVGID_00000174602752690167794000000015288796918099704212_);" points="115,172.6 115,127 69.4,127 
	69.4,100.2 115,100.2 115,54.6 141.7,54.6 141.7,100.2 187.3,100.2 187.3,127 141.7,127 141.7,172.6 "/>
<linearGradient id="SVGID_00000124157216167466772620000006252540589533371019_" gradientUnits="userSpaceOnUse" x1="162.9738" y1="301.1948" x2="73.438" y2="390.7141" gradientTransform="matrix(1 0 0 1 0 2)">
	<stop  offset="0" style="stop-color:#AFAFAF"/>
	<stop  offset="0.995" style="stop-color:#A3A3A3"/>
</linearGradient>
<polygon style="fill:url(#SVGID_00000124157216167466772620000006252540589533371019_);" points="181.8,374.7 181.8,365.4 
	149.6,342.5 181.8,310.2 181.8,300.9 160.6,289 128.3,321.2 96.1,289 74.9,300.9 74.9,310.2 107.1,342.5 74.9,365.4 74.9,374.7 
	96.1,396 128.3,363.7 160.6,396 "/>
<polygon class="st13" points="181.8,365.4 149.6,333.2 181.8,300.9 160.6,279.7 128.3,311.9 96.1,279.7 74.9,300.9 107.1,333.2 
	74.9,365.4 96.1,386.6 128.3,354.4 160.6,386.6 "/>
<linearGradient id="SVGID_00000148650444200701325860000009530791747098814396_" gradientUnits="userSpaceOnUse" x1="160.2964" y1="299.207" x2="77.6733" y2="381.8137" gradientTransform="matrix(1 0 0 1 0 2)">
	<stop  offset="0" style="stop-color:#FFFFFF"/>
	<stop  offset="0.995" style="stop-color:#F5F5F5"/>
</linearGradient>
<polygon style="fill:url(#SVGID_00000148650444200701325860000009530791747098814396_);" points="128.3,352.1 96.1,384.3 
	77.2,365.4 109.4,333.2 77.2,300.9 96.1,282 128.3,314.2 160.6,282 179.5,300.9 147.3,333.2 179.5,365.4 160.6,384.3 "/>
<linearGradient id="SVGID_00000178918687218301266000000013139074194405862554_" gradientUnits="userSpaceOnUse" x1="423.8497" y1="74.4764" x2="303.757" y2="194.5688" gradientTransform="matrix(1 0 0 1 0 2)">
	<stop  offset="0" style="stop-color:#AFAFAF"/>
	<stop  offset="0.995" style="stop-color:#A3A3A3"/>
</linearGradient>
<rect x="316.8" y="107.9" style="fill:url(#SVGID_00000178918687218301266000000013139074194405862554_);" width="121.2" height="30"/>
<rect x="316.8" y="98.6" class="st13" width="121.2" height="30"/>
<linearGradient id="SVGID_00000149369487604831483550000005623430158353150107_" gradientUnits="userSpaceOnUse" x1="422.5857" y1="66.4148" x2="305.7608" y2="183.2397" gradientTransform="matrix(1 0 0 1 0 2)">
	<stop  offset="0" style="stop-color:#FFFFFF"/>
	<stop  offset="0.995" style="stop-color:#F5F5F5"/>
</linearGradient>
<rect x="318.4" y="100.2" style="fill:url(#SVGID_00000149369487604831483550000005623430158353150107_);" width="117.9" height="26.8"/>
<g>
	<polygon class="st19" points="320.7,300 320.7,309.3 320.7,330 320.7,339.3 441.9,339.3 441.9,330 441.9,309.3 441.9,300 
		441.9,300 	"/>
	<polygon class="st19" points="320.7,360.6 320.7,369.9 320.7,390.6 320.7,400 441.9,400 441.9,390.6 441.9,369.9 441.9,360.6 
		441.9,360.6 	"/>
</g>
<g>
	
		<linearGradient id="SVGID_00000023982528605551260340000007734383716232711612_" gradientUnits="userSpaceOnUse" x1="-144.9914" y1="318.434" x2="-32.8953" y2="318.434" gradientTransform="matrix(1 0 0 1 0 2)">
		<stop  offset="0" style="stop-color:#A8A8A8"/>
		<stop  offset="1" style="stop-color:#787878"/>
	</linearGradient>
	
		<rect x="316.8" y="305.4" style="fill:url(#SVGID_00000023982528605551260340000007734383716232711612_);" width="121.2" height="30"/>
	
		<linearGradient id="SVGID_00000172436762692751016750000011491269790934926727_" gradientUnits="userSpaceOnUse" x1="-144.9914" y1="379.0385" x2="-32.8953" y2="379.0385" gradientTransform="matrix(1 0 0 1 0 2)">
		<stop  offset="0" style="stop-color:#A8A8A8"/>
		<stop  offset="1" style="stop-color:#787878"/>
	</linearGradient>
	
		<rect x="316.8" y="366" style="fill:url(#SVGID_00000172436762692751016750000011491269790934926727_);" width="121.2" height="30"/>
</g>
<linearGradient id="SVGID_00000071555256064232334730000004274187065562521761_" gradientUnits="userSpaceOnUse" x1="-144.9914" y1="309.1077" x2="-32.8953" y2="309.1077" gradientTransform="matrix(1 0 0 1 0 2)">
	<stop  offset="0" style="stop-color:#E0E0E0"/>
	<stop  offset="1" style="stop-color:#B0B0B0"/>
</linearGradient>
<rect x="316.8" y="296.1" style="fill:url(#SVGID_00000071555256064232334730000004274187065562521761_);" width="121.2" height="30"/>
<linearGradient id="SVGID_00000019663940949090720060000014873799592362264707_" gradientUnits="userSpaceOnUse" x1="-130.8476" y1="309.1077" x2="-21.7793" y2="309.1077" gradientTransform="matrix(1 0 0 1 0 2)">
	<stop  offset="0" style="stop-color:#CCCCCC"/>
	<stop  offset="1" style="stop-color:#9C9C9C"/>
</linearGradient>
<rect x="318.4" y="297.7" style="fill:url(#SVGID_00000019663940949090720060000014873799592362264707_);" width="117.9" height="26.8"/>
<linearGradient id="SVGID_00000114788896224292491960000009927231397356446362_" gradientUnits="userSpaceOnUse" x1="-144.9914" y1="369.7122" x2="-32.8953" y2="369.7122" gradientTransform="matrix(1 0 0 1 0 2)">
	<stop  offset="0" style="stop-color:#E0E0E0"/>
	<stop  offset="1" style="stop-color:#B0B0B0"/>
</linearGradient>
<rect x="316.8" y="356.7" style="fill:url(#SVGID_00000114788896224292491960000009927231397356446362_);" width="121.2" height="30"/>
<linearGradient id="SVGID_00000156577571913717528330000005320908652297294214_" gradientUnits="userSpaceOnUse" x1="-130.8476" y1="369.7122" x2="-21.7793" y2="369.7122" gradientTransform="matrix(1 0 0 1 0 2)">
	<stop  offset="0" style="stop-color:#CCCCCC"/>
	<stop  offset="1" style="stop-color:#9C9C9C"/>
</linearGradient>
<rect x="318.4" y="358.3" style="fill:url(#SVGID_00000156577571913717528330000005320908652297294214_);" width="117.9" height="26.8"/>
</svg>
