<svg xmlns="http://www.w3.org/2000/svg" version="1.1" xmlns:xlink="http://www.w3.org/1999/xlink" width="512" height="512" x="0" y="0" viewBox="0 0 512 512" style="enable-background:new 0 0 512 512" xml:space="preserve" class=""><g><linearGradient id="a"><stop stop-opacity="1" stop-color="#eff7ff" offset="0"></stop><stop stop-opacity="1" stop-color="#eaf9fa" offset="1"></stop></linearGradient><linearGradient xlink:href="#a" id="f" x1="352.389" x2="330.087" y1="315.928" y2="338.23" gradientTransform="scale(-1 1) rotate(45 0 -197.808)" gradientUnits="userSpaceOnUse"></linearGradient><linearGradient id="b"><stop stop-opacity="1" stop-color="#eaf9fa" offset="0"></stop><stop stop-opacity="1" stop-color="#cee6fd" offset="0.9942084942084942"></stop></linearGradient><linearGradient xlink:href="#b" id="g" x1="139.377" x2="152.914" y1="414.685" y2="377.323" gradientUnits="userSpaceOnUse"></linearGradient><linearGradient xlink:href="#b" id="h" x1="392.179" x2="368.288" y1="292.328" y2="411.785" gradientTransform="scale(-1 1) rotate(45 0 -197.808)" gradientUnits="userSpaceOnUse"></linearGradient><linearGradient xlink:href="#b" id="i" x1="331.697" x2="309.399" y1="336.746" y2="359.576" gradientTransform="scale(-1 1) rotate(45 0 -197.808)" gradientUnits="userSpaceOnUse"></linearGradient><linearGradient xlink:href="#a" id="j" x1="64.962" x2="64.962" y1="198.663" y2="309.044" gradientUnits="userSpaceOnUse"></linearGradient><linearGradient xlink:href="#a" id="k" x1="37.305" x2="37.305" y1="203.994" y2="196.345" gradientUnits="userSpaceOnUse"></linearGradient><linearGradient xlink:href="#a" id="l" x1="32.718" x2="32.718" y1="224.97" y2="217.321" gradientUnits="userSpaceOnUse"></linearGradient><linearGradient xlink:href="#a" id="m" x1="29.851" x2="29.851" y1="245.946" y2="238.297" gradientUnits="userSpaceOnUse"></linearGradient><linearGradient xlink:href="#a" id="n" x1="29.851" x2="29.851" y1="266.922" y2="259.273" gradientUnits="userSpaceOnUse"></linearGradient><linearGradient xlink:href="#a" id="o" x1="32.718" x2="32.718" y1="287.898" y2="280.25" gradientUnits="userSpaceOnUse"></linearGradient><linearGradient xlink:href="#a" id="p" x1="37.305" x2="37.305" y1="308.875" y2="301.226" gradientUnits="userSpaceOnUse"></linearGradient><linearGradient xlink:href="#a" id="q" x1="-32.748" x2="75.153" y1="132.91" y2="236.315" gradientUnits="userSpaceOnUse"></linearGradient><linearGradient xlink:href="#b" id="r" x1="29.001" x2="95.622" y1="234.889" y2="253.282" gradientUnits="userSpaceOnUse"></linearGradient><linearGradient xlink:href="#b" id="s" x1="91.739" x2="91.739" y1="264.467" y2="326.183" gradientUnits="userSpaceOnUse"></linearGradient><linearGradient xlink:href="#b" id="t" x1="63.026" x2="63.026" y1="274.684" y2="325.821" gradientUnits="userSpaceOnUse"></linearGradient><linearGradient id="c"><stop offset="0" stop-color="#fef0ae"></stop><stop offset="1" stop-color="#fbc56d"></stop></linearGradient><linearGradient xlink:href="#c" id="u" x1="220.775" x2="212.247" y1="188.427" y2="283.456" gradientUnits="userSpaceOnUse"></linearGradient><linearGradient id="d"><stop offset="0" stop-color="#dc8758" stop-opacity="0"></stop><stop offset=".215" stop-color="#dd8654" stop-opacity=".215"></stop><stop offset=".429" stop-color="#e28448" stop-opacity=".429"></stop><stop offset=".642" stop-color="#ea8034" stop-opacity=".642"></stop><stop offset=".854" stop-color="#f47b18" stop-opacity=".854"></stop><stop offset="1" stop-color="#fe7701"></stop></linearGradient><linearGradient xlink:href="#d" id="v" x1="200.15" x2="311.018" y1="232.856" y2="246.258" gradientUnits="userSpaceOnUse"></linearGradient><linearGradient xlink:href="#d" id="w" x1="223.553" x2="196.75" y1="283.468" y2="380.934" gradientUnits="userSpaceOnUse"></linearGradient><linearGradient xlink:href="#c" id="x" x1="263.199" x2="411.89" y1="252.21" y2="252.21" gradientUnits="userSpaceOnUse"></linearGradient><linearGradient xlink:href="#d" id="y" x1="364.337" x2="515.291" y1="252.21" y2="252.21" gradientUnits="userSpaceOnUse"></linearGradient><linearGradient xlink:href="#d" id="z" x1="198.643" x2="525.637" y1="206.623" y2="279.186" gradientUnits="userSpaceOnUse"></linearGradient><linearGradient xlink:href="#d" id="A" x1="475.856" x2="307.723" y1="252.21" y2="252.21" gradientUnits="userSpaceOnUse"></linearGradient><linearGradient xlink:href="#d" id="B" x1="416.695" x2="489.718" y1="352.644" y2="451.845" gradientUnits="userSpaceOnUse"></linearGradient><linearGradient xlink:href="#d" id="C" x1="429.199" x2="398.335" y1="352.233" y2="283.465" gradientUnits="userSpaceOnUse"></linearGradient><linearGradient id="D" x1="392.25" x2="392.25" y1="229.14" y2="277.269" gradientUnits="userSpaceOnUse"><stop stop-opacity="1" stop-color="#eaf9fa" offset="0"></stop><stop stop-opacity="1" stop-color="#b3dafe" offset="1"></stop></linearGradient><linearGradient id="e"><stop offset="0" stop-color="#7bacdf" stop-opacity="0"></stop><stop offset="1" stop-color="#7bacdf"></stop></linearGradient><linearGradient xlink:href="#e" id="E" x1="375.457" x2="308.449" y1="245.316" y2="253.845" gradientUnits="userSpaceOnUse"></linearGradient><linearGradient xlink:href="#e" id="F" x1="390.906" x2="396.862" y1="256.487" y2="289.518" gradientUnits="userSpaceOnUse"></linearGradient><linearGradient xlink:href="#e" id="G" x1="383.673" x2="480.733" y1="192.339" y2="284.12" gradientUnits="userSpaceOnUse"></linearGradient><path fill="url(#f)" d="M113.412 499.525h43.256c17.161 0 29.845-15.791 26.375-32.598l-.072-.349-13.626-67.124a103.901 103.901 0 0 1 1.809-48.877c2.941-10.465-5.072-20.815-15.943-20.815h-40.343c-10.871 0-18.884 10.35-15.943 20.815a103.914 103.914 0 0 1 1.809 48.877l-13.626 67.124-.072.349c-3.47 16.806 9.215 32.598 26.376 32.598z" opacity="1" data-original="url(#f)"></path><path fill="url(#g)" d="M113.412 499.525h43.256c17.161 0 29.845-15.791 26.375-32.598l-.072-.349-13.626-67.124a103.901 103.901 0 0 1 1.809-48.877c2.941-10.465-5.072-20.815-15.943-20.815h-40.343c-10.871 0-18.884 10.35-15.943 20.815a103.914 103.914 0 0 1 1.809 48.877l-13.626 67.124-.072.349c-3.47 16.806 9.215 32.598 26.376 32.598z" opacity="1" data-original="url(#g)"></path><path fill="url(#h)" d="m87.037 466.927.072-.349 3.31-16.308h89.241l3.31 16.308.072.35c3.471 16.806-9.214 32.598-26.374 32.598h-43.256c-17.161-.001-29.846-15.793-26.375-32.599z" opacity="1" data-original="url(#h)"></path><path fill="url(#i)" d="M156.668 499.525h-40.347V329.762h38.89c10.871 0 18.884 10.35 15.943 20.815a103.901 103.901 0 0 0-1.808 48.877l13.625 67.124.072.35c3.47 16.805-9.214 32.597-26.375 32.597z" opacity="1" data-original="url(#i)"></path><path fill="url(#j)" d="M91.739 173.701H38.185C17.096 173.701 0 208.85 0 252.21s17.096 78.509 38.185 78.509h53.554c21.089 0 38.185-35.15 38.185-78.509s-17.097-78.509-38.185-78.509z" opacity="1" data-original="url(#j)"></path><path fill="url(#k)" d="M49.058 204.266H25.551a4.496 4.496 0 0 1 0-8.992h23.507a4.496 4.496 0 0 1 0 8.992z" opacity="1" data-original="url(#k)"></path><path fill="url(#l)" d="M44.471 225.242H20.965a4.496 4.496 0 0 1 0-8.992h23.507a4.496 4.496 0 1 1-.001 8.992z" opacity="1" data-original="url(#l)"></path><path fill="url(#m)" d="M41.605 246.218H18.098a4.496 4.496 0 0 1 0-8.992h23.507a4.496 4.496 0 0 1 0 8.992z" opacity="1" data-original="url(#m)"></path><path fill="url(#n)" d="M41.605 267.195H18.098a4.496 4.496 0 0 1 0-8.992h23.507a4.496 4.496 0 0 1 0 8.992z" opacity="1" data-original="url(#n)"></path><path fill="url(#o)" d="M44.471 288.171H20.965a4.496 4.496 0 0 1 0-8.992h23.507a4.496 4.496 0 1 1-.001 8.992z" opacity="1" data-original="url(#o)"></path><path fill="url(#p)" d="M49.058 309.147H25.551a4.496 4.496 0 0 1 0-8.992h23.507a4.496 4.496 0 0 1 0 8.992z" opacity="1" data-original="url(#p)"></path><path fill="url(#q)" d="M91.739 173.701c-21.089 0-38.185 35.15-38.185 78.509s17.096 78.509 38.185 78.509c21.089 0 38.185-35.15 38.185-78.509s-17.097-78.509-38.185-78.509z" opacity="1" data-original="url(#q)"></path><path fill="url(#r)" d="M91.739 173.701c-21.089 0-38.185 35.15-38.185 78.509s17.096 78.509 38.185 78.509c21.089 0 38.185-35.15 38.185-78.509s-17.097-78.509-38.185-78.509z" opacity="1" data-original="url(#r)"></path><path fill="url(#s)" d="M53.554 252.21c0 43.359 17.096 78.509 38.185 78.509s38.185-35.15 38.185-78.509c0-6.484-.385-12.783-1.106-18.81H54.66a158.602 158.602 0 0 0-1.106 18.81z" opacity="1" data-original="url(#s)"></path><path fill="url(#t)" d="M126.052 248.527H.043C.016 249.747 0 250.975 0 252.21c0 43.359 17.096 78.509 38.185 78.509h53.554c15.073 0 28.105-17.959 34.314-44.037v-38.155z" opacity="1" data-original="url(#t)"></path><path fill="url(#u)" d="M360.264 38.022v428.376s-37.154-53.341-145.919-85.958c-22.058-6.611-47.07-12.38-75.307-16.669-14.515-2.205-28.189-5.922-40.755-10.906-13.876-5.504-24.452-14.275-29.853-24.716-7.617-14.724-17.07-40.198-17.07-75.939 0-29.761 7.11-57.152 19.022-78.906a136.72 136.72 0 0 1 2.136-3.748c3.332-5.634 8.966-10.474 16.234-13.885 15.07-7.074 32.008-12.239 50.286-15.021 28.237-4.289 53.249-10.058 75.307-16.669C323.11 91.363 360.264 38.022 360.264 38.022z" opacity="1" data-original="url(#u)"></path><path fill="url(#v)" d="M140.959 140.345v223.73c165.956 25.753 219.3 102.325 219.3 102.325V38.019c-.001 0-53.344 76.572-219.3 102.326z" opacity="1" data-original="url(#v)"></path><path fill="url(#w)" d="M54.799 217.057c-2.228 11.173-3.44 22.959-3.44 35.152 0 35.741 9.454 61.215 17.07 75.939 5.401 10.441 15.977 19.212 29.853 24.716 12.566 4.984 26.24 8.701 40.755 10.906 28.237 4.289 53.249 10.058 75.307 16.669 108.765 32.617 145.919 85.958 145.919 85.958v-249.34z" opacity="1" data-original="url(#w)"></path><ellipse cx="395.4" cy="252.21" fill="url(#x)" rx="116.6" ry="239.734" opacity="1" data-original="url(#x)"></ellipse><path fill="url(#y)" d="M395.4 12.475c-23.196 0-44.809 13.929-62.971 37.936v403.596c18.162 24.007 39.775 37.936 62.971 37.936 64.397 0 116.6-107.333 116.6-239.734S459.796 12.475 395.4 12.475z" opacity="1" data-original="url(#y)"></path><ellipse cx="404.074" cy="252.21" fill="url(#z)" rx="86.8" ry="196.299" opacity="1" data-original="url(#z)"></ellipse><ellipse cx="404.074" cy="252.21" fill="url(#A)" rx="86.8" ry="196.299" opacity="1" data-original="url(#A)"></ellipse><path fill="url(#B)" d="M278.995 265.988c3.473 125.989 54.258 225.957 116.404 225.957s112.931-99.968 116.404-225.957z" opacity="1" data-original="url(#B)"></path><path fill="url(#C)" d="m490.833 258.043-30.889-30.888-138.649 84.222v.041c11.105 79.474 43.964 137.091 82.778 137.091 47.076-.001 85.395-84.752 86.76-190.466z" opacity="1" data-original="url(#C)"></path><path fill="url(#D)" d="M470.028 252.21c0 11.348-5.013 19.438-9.047 24.109-2.871 3.316-8.477 6.107-15.837 7.85-6.665 1.584-13.912 2.769-21.614 3.464-14.983 1.367-28.245 3.19-39.946 5.298-30.444 5.469-50.314 12.761-62.289 18.446 0 0-6.822-16.604-6.822-59.167s6.822-59.167 6.822-59.167c11.975 5.685 31.845 12.977 62.289 18.446 11.701 2.108 24.963 3.931 39.946 5.298 9.696.877 18.674 2.518 26.672 4.774 3.851 1.082 6.836 2.609 8.614 4.398.376.399.763.798 1.128 1.196 6.324 6.905 10.084 15.609 10.084 25.055z" opacity="1" data-original="url(#D)"></path><path fill="url(#E)" d="M470.028 252.21c0 11.348-5.013 19.438-9.047 24.109-2.871 3.316-8.477 6.107-15.837 7.85-6.665 1.584-13.912 2.769-21.614 3.464-14.983 1.367-28.245 3.19-39.946 5.298-30.444 5.469-50.314 12.761-62.289 18.446 0 0-6.822-16.604-6.822-59.167s6.822-59.167 6.822-59.167c11.975 5.685 31.845 12.977 62.289 18.446 11.701 2.108 24.963 3.931 39.946 5.298 9.696.877 18.674 2.518 26.672 4.774 3.851 1.082 6.836 2.609 8.614 4.398.376.399.763.798 1.128 1.196 6.324 6.905 10.084 15.609 10.084 25.055z" opacity="1" data-original="url(#E)"></path><path fill="url(#F)" d="M470.028 252.21c0 11.348-5.013 19.438-9.047 24.109-2.871 3.316-8.477 6.107-15.837 7.85-6.665 1.584-13.912 2.769-21.614 3.464-14.983 1.367-28.245 3.19-39.946 5.298-30.444 5.469-50.314 12.761-62.289 18.446 0 0-6.822-16.604-6.822-59.167s6.822-59.167 6.822-59.167c11.975 5.685 31.845 12.977 62.289 18.446 11.701 2.108 24.963 3.931 39.946 5.298 9.696.877 18.674 2.518 26.672 4.774 3.851 1.082 6.836 2.609 8.614 4.398.376.399.763.798 1.128 1.196 6.324 6.905 10.084 15.609 10.084 25.055z" opacity="1" data-original="url(#F)"></path><path fill="url(#G)" d="M435.161 225.964c-.386.39-.763.787-1.133 1.19-6.318 6.908-10.089 15.605-10.089 25.055 0 11.349 5.014 19.438 9.054 24.113 2.618 3.03 7.548 5.608 13.993 7.365 6.445-1.757 11.375-4.334 13.993-7.365 4.04-4.675 9.054-12.764 9.054-24.113 0-9.45-3.771-18.148-10.089-25.055-.37-.403-.747-.8-1.133-1.19-1.767-1.789-4.755-3.326-8.61-4.409-1.054-.296-2.127-.58-3.215-.855-1.088.275-2.161.559-3.215.855-3.855 1.083-6.843 2.62-8.61 4.409z" opacity="1" data-original="url(#G)"></path></g></svg>