<?xml version="1.0" encoding="utf-8"?>
<!-- Generator: Adobe Illustrator 26.3.1, SVG Export Plug-In . SVG Version: 6.00 Build 0)  -->
<svg version="1.1" id="Capa_1" xmlns="http://www.w3.org/2000/svg" xmlns:xlink="http://www.w3.org/1999/xlink" x="0px" y="0px"
	 viewBox="0 0 512 512" style="enable-background:new 0 0 512 512;" xml:space="preserve">
<style type="text/css">
	.st0{fill:#EFAE2E;}
	.st1{fill:#E59120;}
	.st2{fill:#FFE28F;}
	.st3{fill:#FFD243;}
	.st4{fill:#E88102;}
	.st5{fill:#FDD835;}
	.st6{opacity:0.5;fill:#FFFFFF;enable-background:new    ;}
	.st7{fill:#F39E09;}
	.st8{fill:#DB6704;}
	.st9{opacity:0.25;fill:#FFFFFF;enable-background:new    ;}
</style>
<path class="st0" d="M478.1,359.4v50.2c0,21.5-53.4,39-119.3,39c-42.8,0-80.4-7.4-101.4-18.5c-11.3-6-17.8-13-17.8-20.5v-50.2H478.1
	z"/>
<path class="st1" d="M239.5,359.4h73.7c-11.8,28.4-31.3,52.8-55.8,70.7c-11.3-6-17.8-13-17.8-20.5L239.5,359.4L239.5,359.4z"/>
<path class="st2" d="M478.1,359.4c0,21.5-53.4,39-119.3,39c-23.5,0-45.4-2.2-63.9-6.1c-33.3-6.9-55.4-19.1-55.4-32.9
	c0-9.8,11-18.7,29.2-25.6c14.4-5.4,33.4-9.5,55-11.7c11.1-1.1,22.9-1.7,35.1-1.7c61.7,0,112.4,15.3,118.6,34.9
	C477.9,356.6,478.1,358,478.1,359.4z"/>
<g>
	<path class="st3" d="M477.4,355.3c-23.3,7.1-53.2,10.9-84.7,10.9c-28.4,0-55.2-3.1-77.5-8.9c-25.1-6.6-39-15-46.4-23.5
		c14.4-5.4,33.4-9.5,55-11.7c11.1-1.1,22.9-1.7,35.1-1.7C420.5,320.4,471.2,335.7,477.4,355.3z"/>
	<path class="st3" d="M323.8,322.1c-4.1,25.9-14.2,49.7-28.9,70.2c-33.3-6.9-55.4-19.1-55.4-32.9C239.5,341.8,275,327,323.8,322.1z"
		/>
</g>
<path class="st0" d="M512,264.9v50.2c0,21.5-53.4,39-119.3,39c-28.2,0-54-3.2-74.4-8.5c-27.3-7.1-44.8-18.1-44.8-30.4v-50.2H512z"/>
<path class="st1" d="M325.8,295.9c0,17.3-2.6,33.9-7.6,49.6c-27.3-7.1-44.8-18.1-44.8-30.4v-50.2h49.5
	C324.8,274.9,325.8,285.3,325.8,295.9z"/>
<path class="st2" d="M512,264.9c0,21.5-53.4,39-119.3,39c-24.8,0-47.8-2.5-66.9-6.7c-31.6-7-52.4-18.9-52.4-32.3
	c0-1.4,0.2-2.8,0.7-4.2c3.3-10,18.2-18.9,40.3-25.2c21-6,48.3-9.6,78.3-9.6c35.9,0,68.1,5.2,90,13.4C501,246.1,512,255.1,512,264.9z
	"/>
<g>
	<path class="st3" d="M482.7,239.3c-6.3,7.1-17.2,14.4-35.8,20.4c-23.7,7.7-55,12-88.1,12c-13.2,0-26.3-0.7-38.8-2
		c-9.4-1-27.9-3.5-45.9-9c3.3-10,18.2-18.9,40.3-25.2c21-6,48.3-9.6,78.3-9.6C428.6,225.9,460.9,231.1,482.7,239.3z"/>
	<path class="st3" d="M325.8,295.9c0,0.4,0,0.8,0,1.2c-31.6-7-52.4-18.9-52.4-32.3c0-11.7,15.9-22.3,41-29.4
		C321.8,254.2,325.8,274.6,325.8,295.9z"/>
</g>
<path class="st0" d="M478.1,170.3v50.2c0,21.5-53.4,39-119.3,39c-13.1,0-25.7-0.7-37.5-2c-47.5-5.1-81.8-19.8-81.8-37v-50.2
	L478.1,170.3L478.1,170.3z"/>
<path class="st1" d="M239.5,220.5v-50.2h28.6c26,22.4,45,52.8,53.2,87.2C273.8,252.4,239.5,237.8,239.5,220.5z"/>
<path class="st2" d="M478.1,170.3c0,6.9-5.5,13.4-15.1,19c-20.4,11.9-59.4,20-104.1,20c-22.3,0-43.1-2-61-5.5
	c-34.9-6.8-58.3-19.3-58.3-33.5c0-5.2,3.1-10.2,8.8-14.7c3.4-2.8,7.8-5.4,13-7.8c21.6-10,57.2-16.5,97.5-16.5
	C424.7,131.3,478.1,148.8,478.1,170.3z"/>
<g>
	<path class="st3" d="M478.1,170.3c0,6.9-5.5,13.4-15.1,19c-20.6,4.6-44.9,7.1-70.2,7.1c-33.1,0-64.4-4.3-88.1-12
		c-33.2-10.9-42.1-25.4-43.2-36.6c21.6-10,57.2-16.5,97.5-16.5C424.7,131.3,478.1,148.8,478.1,170.3z"/>
	<path class="st3" d="M239.5,170.3c0-5.2,3.1-10.2,8.8-14.7c19.7,12.4,36.6,28.9,49.5,48.2C262.9,197,239.5,184.6,239.5,170.3z"/>
</g>
<path class="st0" d="M273.4,95.1v50.2c0,21.5,53.4,39,119.3,39s119.3-17.5,119.3-39V95.1"/>
<ellipse class="st2" cx="392.7" cy="95.1" rx="119.3" ry="39"/>
<path class="st1" d="M160,423.8c-70.5,0-127.9-57.4-127.9-127.9C32.1,225.4,89.5,168,160,168s127.9,57.4,127.9,127.9
	C287.9,366.5,230.5,423.8,160,423.8z"/>
<circle class="st2" cx="160" cy="295.9" r="115.7"/>
<g>
	<path class="st1" d="M184.6,313.2c0-13.4-10.6-24.3-23.8-24.8c-0.2,0-0.4,0-0.6,0c-5.3,0-9.6-4.3-9.6-9.6s4.3-9.6,9.6-9.6
		c2.9,0,5.6,1.3,7.4,3.5c2.7,3.3,7.5,3.8,10.7,1.1c3.3-2.7,3.8-7.5,1.1-10.7c-3.1-3.8-7.1-6.5-11.6-8v-3.9c0-4.2-3.4-7.6-7.6-7.6
		s-7.6,3.4-7.6,7.6v3.9c-10,3.2-17.2,12.6-17.2,23.7c0,13.4,10.6,24.3,23.8,24.8c0.2,0,0.4,0,0.6,0c5.3,0,9.6,4.3,9.6,9.6
		c0,5.3-4.3,9.6-9.6,9.6c-2.9,0-5.6-1.3-7.4-3.5c-2.7-3.3-7.5-3.8-10.7-1.1c-3.3,2.7-3.8,7.5-1.1,10.7c3.2,3.9,7.4,6.7,12.1,8.1v3.8
		c0,4.2,3.4,7.6,7.6,7.6s7.6-3.4,7.6-7.6v-4.1C177.6,333.3,184.6,324,184.6,313.2z"/>
	<path class="st1" d="M215.4,303.6C215.4,303.6,215.4,303.6,215.4,303.6c-4.3,0-7.7-3.5-7.7-7.7c0-4.2,3.4-7.6,7.6-7.6c0,0,0,0,0,0
		l0.1,0c4.2,0,7.6,3.5,7.6,7.7C223,300.2,219.6,303.6,215.4,303.6z"/>
	<path class="st1" d="M104.6,303.6C104.6,303.6,104.6,303.6,104.6,303.6c-4.3,0-7.7-3.5-7.7-7.7c0-4.2,3.4-7.6,7.6-7.6c0,0,0,0,0,0
		l0.1,0c4.2,0,7.6,3.5,7.6,7.7C112.2,300.2,108.8,303.6,104.6,303.6z"/>
</g>
<g id="Currency">
	<g id="Dollar">
		<g id="Coin">
			<g id="Bottom">
				<ellipse class="st4" cx="160.5" cy="296.1" rx="152.2" ry="159"/>
				<circle class="st5" cx="160.5" cy="287.7" r="150.6"/>
			</g>
			<g id="Shade">
				<path class="st6" d="M220.7,149.5L22.4,347.8c-6.6-15.2-10.8-31.7-12.1-49.1l161.2-161.3C188.9,138.7,205.4,142.9,220.7,149.5z"
					/>
				<path class="st6" d="M291.8,213.8L86.6,418.9c-12.8-7.2-24.4-16.2-34.5-26.7l213-212.9C275.6,189.4,284.6,201,291.8,213.8z"/>
				<path class="st6" d="M259,173.6L46.6,386.1c-3.3-3.9-6.5-7.9-9.4-12.1L247,164.3C251.1,167.2,255.1,170.3,259,173.6L259,173.6z"
					/>
				<path class="st6" d="M306.5,250.1L123,433.6c-5.5-1.4-10.9-3.2-16.2-5.2l194.6-194.6C303.3,239.2,305,244.6,306.5,250.1z"/>
				<path class="st6" d="M311.2,287.7c0,1.1,0,2-0.1,3.1c-1.6-81.7-68.4-147.5-150.6-147.5S11.6,209,10,290.8c0-1.1-0.1-2-0.1-3.1
					C9.9,204.5,77.4,137,160.5,137S311.2,204.5,311.2,287.7z"/>
				<path class="st6" d="M282.9,294.2c0,65.2-52.9,118-118,118c-36.6,0-69.3-16.7-91-42.9c21.6,23.3,52.4,37.9,86.7,37.9
					c65.2,0,118-52.9,118-118c0-28.6-10.1-54.7-27-75.2C271,235.1,282.9,263.3,282.9,294.2z"/>
			</g>
			<g id="Top">
				<circle class="st7" cx="160.5" cy="289.2" r="118"/>
				<path class="st4" d="M250,212.2c-20.7-17.8-47.6-28.6-77-28.6c-65.2,0-118,52.9-118,118c0,29.4,10.7,56.3,28.6,77
					c-25.1-21.7-41-53.7-41-89.4c0-65.2,52.9-118,118-118C196.3,171.2,228.3,187.1,250,212.2z"/>
			</g>
		</g>
		<g id="Icon">
			<path id="Bottom-2" class="st8" d="M153.2,259.2c-2.1,2.4-3.2,5.8-3.2,10.1c0,4.3,1.2,7.8,3.7,10.4c2.5,2.5,6.5,5,11.9,7.3
				c5.5,2.3,10.6,4.7,15.5,7.2c4.8,2.5,9,5.3,12.5,8.5s6.3,6.9,8.3,11.1c0.7,1.6,3,4.7,3,4.7s0,10.3,0,10.6
				c0,10.1-3.2,18.3-9.6,24.6c-6.4,6.3-15,10.1-26,11.1v17.6h-14v-17.8c-12.8-1.4-22.6-5.7-29.5-13.2c-6.8-7.5-10.2-17.2-10.2-29.4
				v-9.3l29.7,9.3c0,6.7,1.5,11.8,4.5,15.3c3,3.5,7.2,5.2,12.7,5.2c4,0,7.1-1.2,9.4-3.6c2.3-2.4,3.4-5.7,3.4-9.8
				c0-4.7-1.1-8.3-3.4-10.9c-2.3-2.7-6.3-5.2-12.1-7.5c-5.8-2.4-11.1-4.7-16-7.1c-4.9-2.4-9.1-5.2-12.6-8.4c-3.5-3.2-6.2-6.8-8.1-11
				c-1.9-4.2-2.8-9.2-2.8-15.2v-9.9c0,0,5.5-10.4,10.1-14.7c6.7-6.5,15.7-10.2,26.8-11.2v-18.5h14v18.9c10.7,1.6,19.2,6,25.3,13.3
				c4.2,5,9.2,18.3,9.2,18.3v9.3h-29.8c0-6.1-1.2-10.8-3.5-14.1c-2.4-3.3-5.7-4.9-10.1-4.9C158.3,255.5,155.3,256.7,153.2,259.2
				L153.2,259.2z"/>
			<path id="Top-2" class="st5" d="M175.1,319.9c0-4.7-1.1-8.3-3.4-10.9c-2.3-2.7-6.3-5.2-12.1-7.5c-5.8-2.4-11.1-4.7-16-7.1
				c-4.9-2.4-9.1-5.2-12.6-8.4c-3.5-3.2-6.2-6.8-8.1-11c-1.9-4.2-2.8-9.3-2.8-15.2c0-9.9,3.4-18.1,10.1-24.5
				c6.7-6.4,15.7-10.2,26.8-11.2v-18.6h14v18.9c10.7,1.6,19.2,6,25.3,13.3s9.2,16.5,9.2,27.6h-29.8c0-6.1-1.2-10.8-3.5-14.1
				c-2.4-3.3-5.7-4.9-10.1-4.9c-3.9,0-6.9,1.2-9,3.7c-2.1,2.4-3.2,5.8-3.2,10.1s1.2,7.8,3.7,10.4c2.5,2.5,6.5,5,11.9,7.3
				c5.5,2.3,10.6,4.7,15.5,7.2c4.8,2.5,9,5.3,12.5,8.5c3.5,3.2,6.3,6.9,8.3,11.1c2,4.2,3,9.3,3,15.2c0,10.1-3.2,18.3-9.6,24.6
				s-15,10.1-26,11.1v17.6h-14v-17.8c-12.8-1.4-22.6-5.7-29.5-13.2c-6.8-7.5-10.2-17.2-10.2-29.4h29.7c0,6.7,1.5,11.8,4.5,15.3
				s7.2,5.2,12.7,5.2c4,0,7.1-1.2,9.4-3.6S175.1,324,175.1,319.9L175.1,319.9z"/>
			<g id="Shade-2">
				<path class="st6" d="M130.2,235.2c3.6-3.5,7.9-6.1,12.8-8.1L122,248.2C123.6,243.3,126.3,239,130.2,235.2z"/>
				<path class="st6" d="M164.8,205.4l-7.8,7.8v-7.8H164.8z"/>
				<path class="st6" d="M201.6,304l-50.8,50.8c-10.7-1.8-19.1-6-25.1-12.5c-3.9-4.3-6.7-9.3-8.4-15.1l14.3-14.3h13.5
					c0,6.7,1.5,11.8,4.5,15.3c3,3.5,7.2,5.2,12.7,5.2c4,0,7.1-1.2,9.4-3.6s3.4-5.7,3.4-9.8c0-4.7-1.1-8.3-3.4-10.9
					c-2.3-2.7-6.3-5.2-12.1-7.5c-4.1-1.7-8-3.4-11.6-5.1l18.4-18.4c5.2,2.2,10,4.5,14.6,6.8c4.8,2.5,9,5.3,12.5,8.5
					C197,296.4,199.7,299.9,201.6,304z"/>
				<path class="st6" d="M205.6,265.2h-26.4l21.4-21.4C203.9,249.9,205.6,257,205.6,265.2z"/>
				<path class="st6" d="M115.5,312.7h4.4l-4.2,4.2C115.6,315.6,115.5,314.1,115.5,312.7z"/>
				<path class="st6" d="M153.6,270.3c1.2,1.3,2.9,2.5,4.9,3.8l-18.4,18.4c-3.4-1.9-6.5-4.1-9.1-6.5c-1.1-0.9-2-1.9-2.9-2.9
					l21.8-21.8C150.2,264.9,151.5,268,153.6,270.3L153.6,270.3z"/>
				<path class="st6" d="M195.8,236.9L175,257.6c-0.6-2.5-1.5-4.7-2.7-6.5c-1.9-2.6-4.3-4.2-7.5-4.7l18.6-18.6
					C188.2,230,192.3,233,195.8,236.9L195.8,236.9z"/>
				<path class="st6" d="M162,373.1l7.2-7.2v7.2H162z"/>
				<path class="st6" d="M202.9,332.2c-1.6,4.6-4.1,8.6-7.6,12.1c-3.5,3.5-7.6,6.1-12.5,8L202.9,332.2z"/>
				<path class="st9" d="M259,224.1c-76.4,26.8-137.8,85.8-167.8,160.6c-2.6-1.9-5.2-3.9-7.6-6.1c-17.8-20.7-28.6-47.6-28.6-77
					c0-65.2,52.9-118,118-118c29.4,0,56.3,10.7,77,28.6C253.2,216,256.2,220,259,224.1L259,224.1z"/>
			</g>
		</g>
	</g>
</g>
</svg>
