<?xml version="1.0" encoding="utf-8"?>
<!-- Generator: Adobe Illustrator 26.3.1, SVG Export Plug-In . SVG Version: 6.00 Build 0)  -->
<svg version="1.1" id="Layer_1" xmlns="http://www.w3.org/2000/svg" xmlns:xlink="http://www.w3.org/1999/xlink" x="0px" y="0px"
	 viewBox="0 0 40 40" style="enable-background:new 0 0 40 40;" xml:space="preserve">
<style type="text/css">
	.st0{clip-path:url(#SVGID_00000096751682775907116940000000811974285215365510_);}
	.st1{fill:#009393;}
	.st2{fill-rule:evenodd;clip-rule:evenodd;fill:#FFFFFF;}
</style>
<g>
	<defs>
		<rect id="SVGID_1_" width="40" height="40"/>
	</defs>
	<clipPath id="SVGID_00000024706532835257361900000013073997552148475538_">
		<use xlink:href="#SVGID_1_"  style="overflow:visible;"/>
	</clipPath>
	<g style="clip-path:url(#SVGID_00000024706532835257361900000013073997552148475538_);">
		<path class="st1" d="M40,20c0,11-9,20-20,20S0,31,0,20S9,0,20,0S40,9,40,20z"/>
		<path class="st2" d="M11.6,9.1h17.2c0.4,0,0.8,0.2,1,0.6l5,8.7c0.3,0.5,0.2,1-0.2,1.4L20.8,33.3c-0.4,0.4-1.2,0.4-1.6,0L5.4,19.7
			c-0.4-0.4-0.4-1-0.2-1.4l5.3-8.7C10.8,9.3,11.2,9.1,11.6,9.1z M26.5,12.9v2.4h-4.9v1.7c3.4,0.2,6,0.9,6,1.8l0,1.9
			c0,0.9-2.6,1.6-6,1.8v4.2h-3.2v-4.2c-3.4-0.2-6-0.9-6-1.8l0-1.9c0-0.9,2.6-1.6,6-1.8v-1.7h-4.9v-2.4H26.5z M20,21.3
			c3.7,0,6.7-0.6,7.5-1.5c-0.6-0.7-2.9-1.3-5.9-1.4v1.8c-0.5,0-1.1,0-1.6,0c-0.6,0-1.1,0-1.6,0v-1.8c-2.9,0.2-5.2,0.7-5.9,1.4
			C13.3,20.7,16.4,21.3,20,21.3z"/>
	</g>
</g>
</svg>
